<?xml version="1.0" encoding="utf-8"?>
<!-- Generator: Adobe Illustrator 24.0.1, SVG Export Plug-In . SVG Version: 6.00 Build 0)  -->
<svg version="1.1" id="레이어_1" xmlns="http://www.w3.org/2000/svg" xmlns:xlink="http://www.w3.org/1999/xlink" x="0px"
	 y="0px" viewBox="0 0 1077 661" style="enable-background:new 0 0 1077 661;" xml:space="preserve">
<style type="text/css">
	.st0{fill:#54565A;}
	.st1{fill:none;stroke:#C6C6C6;stroke-linecap:round;}
	.st2{fill:#0AB0BF;}
	.st3{fill:#66E6A8;}
	.st4{fill:#008C99;}
	.st5{fill:#FF4E00;}
	.st6{fill:#FD9E32;}
	.st7{fill:none;stroke:#54565A;stroke-width:3;stroke-linecap:round;}
</style>
<g>
	<path class="st0" d="M571.7,612.3v0.9c0,3,2.8,4.8,4.9,5.4c-0.7,0.7-1.5,1.7-1.8,2.2c-1.1-0.4-3.7-2.1-4.6-3.6
		c-0.6,1.4-3.1,3.4-4.8,4.1c-0.4-0.5-1.4-1.3-2.2-2c1.6-0.6,3.2-1.5,4.2-2.8c0.8-0.9,1.2-2.1,1.2-3.3v-0.8h-3.8v-2.6h10.7v2.6H571.7
		z M566.4,626.3c0-2.4,2.8-4.4,7.8-4.4s7.8,1.9,7.8,4.4c0,2.4-2.8,4.3-7.8,4.3S566.4,628.8,566.4,626.3z M569.7,626.3
		c0,1.1,1.8,2.1,4.5,2.1c2.7,0,4.5-0.9,4.5-2c0-1.2-1.8-2-4.5-2S569.7,625.1,569.7,626.3z M584.2,616.2h-2.7v5.7h-3v-13h3v4.7h2.7
		V616.2z"/>
	<path class="st0" d="M597.1,610.2c0,3-0.6,6-1.9,8.8c-1.5,3-3.9,5.7-7.2,7.7c-0.5-0.5-1.7-1.5-2.5-2c2.8-1.5,4.9-3.4,6.3-5.7
		c1.2-1.9,1.8-4,1.9-6.2h-7.1v-2.6H597.1z M603.6,630.3h-3v-21.5h3V630.3z"/>
	<path class="st0" d="M622.5,612.8v1.8c0,4,1.7,7.5,5.4,9.5l-2.1,2c-1.7-0.9-4-3.4-4.8-5.2c-0.9,2.4-3.2,4.6-4.9,5.7
		c-0.7-0.6-1.5-1.2-2.5-2c1.9-1.1,3.4-2.5,4.4-4.3c0.9-1.6,1.4-3.5,1.4-5.7v-1.8h-4.2v-2.6h11.7v2.6H622.5z M632.5,630.3h-3v-21.5h3
		V630.3z"/>
	<path class="st0" d="M650.3,617v2.5c-1.8,0.3-5.5,0.6-7,0.6v3.3h-3v-3.3H636v-2.5h6.7C644.8,617.7,649.2,617.3,650.3,617z
		 M642.9,616.7c-3.6,0-5.4-1.9-5.4-4c0-2.1,1.8-4,5.4-4c3.6,0,5.4,1.9,5.4,4C648.3,614.8,646.5,616.7,642.9,616.7z M654.6,630h-15.4
		v-5.5h3v2.9h12.4V630z M640.4,612.6c0,0.7,0.8,1.8,2.5,1.8c1.8,0,2.5-1.1,2.5-1.8c0-0.7-0.7-1.8-2.5-1.8
		C641.2,610.8,640.4,611.9,640.4,612.6z M654.2,625h-3v-1.6h-4.6V621h4.6v-12.1h3V625z"/>
	<path class="st0" d="M682.6,630.3h-3v-11.6H676v6.7h-10.2V610h3v4.9h4.3V610h3v6h3.6v-7.1h3V630.3z M673.1,622.8v-5.2h-4.3v5.2
		H673.1z"/>
	<path class="st0" d="M694.2,612.3v1.3c0,3,2.8,4.9,4.9,5.5c-0.7,0.7-1.5,1.8-1.8,2.2c-1.1-0.4-3.7-2.1-4.6-3.6
		c-0.6,1.4-3.1,3.4-4.8,4.1c-0.4-0.5-1.4-1.4-2.2-2.1c1.5-0.5,2.9-1.4,4-2.6c0.9-1,1.5-2.2,1.5-3.6v-1.2h-3.8v-2.6H698v2.6H694.2z
		 M705.1,630H690v-7h3v4.3h12.1V630z M704.7,624.2h-3v-8h-3.9v-2.6h3.9v-4.7h3V624.2z"/>
</g>
<path class="st1" d="M223,401h823"/>
<path class="st1" d="M223,316h823"/>
<path class="st1" d="M223,231h823"/>
<path class="st1" d="M223,146h823"/>
<path class="st1" d="M223,61h823"/>
<rect x="283" y="80" class="st2" width="97" height="406"/>
<rect x="433" y="96" class="st3" width="97" height="390"/>
<rect x="583" y="470" class="st4" width="97" height="16"/>
<rect x="733" y="481" class="st5" width="97" height="5"/>
<rect x="882" y="483" class="st6" width="97" height="3"/>
<path class="st7" d="M223,486h823"/>
<path class="st0" d="M287.8,540h-2.2v-14.2c0-1.2,0-2.3,0.1-3.4c-0.2,0.2-0.4,0.4-0.6,0.6c-0.2,0.2-1.3,1.1-3.3,2.7l-1.2-1.6
	l5.3-4.1h1.9V540z M303.8,540h-2.2v-14.2c0-1.2,0-2.3,0.1-3.4c-0.2,0.2-0.4,0.4-0.6,0.6c-0.2,0.2-1.3,1.1-3.3,2.7l-1.2-1.6l5.3-4.1
	h1.9V540z M318.4,532.3c0-2.4,0.4-4.7,1.1-6.8c0.7-2.1,1.7-4,3.1-5.5h2.2c-1.3,1.8-2.3,3.7-3,5.8c-0.7,2.1-1,4.3-1,6.5
	c0,2.2,0.3,4.3,1,6.4c0.7,2.1,1.6,4,2.9,5.7h-2.2c-1.3-1.5-2.4-3.4-3.1-5.4C318.8,536.9,318.4,534.7,318.4,532.3z M328.4,540v-20
	h2.3v17.9h8.8v2.1H328.4z M349.1,540h-2.3v-17.9h-6.3V520h15v2.1h-6.3V540z M369.7,534.7c0,1.8-0.6,3.1-1.9,4.1
	c-1.3,1-3,1.5-5.2,1.5c-2.4,0-4.2-0.3-5.5-0.9v-2.2c0.8,0.3,1.7,0.6,2.7,0.8c1,0.2,1.9,0.3,2.9,0.3c1.5,0,2.7-0.3,3.5-0.9
	c0.8-0.6,1.2-1.4,1.2-2.5c0-0.7-0.1-1.3-0.4-1.7c-0.3-0.4-0.7-0.9-1.4-1.2c-0.6-0.4-1.6-0.8-3-1.3c-1.9-0.7-3.2-1.5-4-2.4
	c-0.8-0.9-1.2-2.1-1.2-3.6c0-1.5,0.6-2.8,1.7-3.7c1.2-0.9,2.7-1.4,4.6-1.4c2,0,3.8,0.4,5.5,1.1l-0.7,2c-1.6-0.7-3.3-1-4.8-1
	c-1.2,0-2.2,0.3-2.9,0.8c-0.7,0.5-1,1.3-1,2.2c0,0.7,0.1,1.3,0.4,1.7c0.3,0.4,0.7,0.8,1.3,1.2c0.6,0.4,1.5,0.8,2.8,1.2
	c2.1,0.7,3.5,1.5,4.3,2.4C369.3,532.2,369.7,533.3,369.7,534.7z M378.2,532.3c0,2.4-0.4,4.6-1.1,6.7c-0.7,2.1-1.7,3.9-3,5.4h-2.2
	c1.3-1.7,2.2-3.6,2.9-5.7c0.7-2.1,1-4.2,1-6.4c0-2.2-0.3-4.4-1-6.5c-0.7-2.1-1.6-4-3-5.8h2.2c1.3,1.6,2.4,3.4,3.1,5.6
	C377.8,527.7,378.2,529.9,378.2,532.3z"/>
<path class="st0" d="M444,519.7c1.8,0,3.3,0.4,4.3,1.3c1.1,0.8,1.6,2,1.6,3.5c0,1-0.3,1.9-0.9,2.7c-0.6,0.8-1.6,1.5-2.9,2.2
	c1.6,0.8,2.8,1.6,3.5,2.4c0.7,0.8,1,1.8,1,3c0,1.7-0.6,3-1.7,4c-1.2,1-2.7,1.5-4.8,1.5c-2.1,0-3.8-0.5-4.9-1.4
	c-1.1-0.9-1.7-2.3-1.7-4c0-2.3,1.4-4.1,4.2-5.3c-1.3-0.7-2.2-1.5-2.7-2.3c-0.5-0.8-0.8-1.8-0.8-2.8c0-1.4,0.5-2.6,1.6-3.5
	C440.8,520.2,442.2,519.7,444,519.7z M439.7,535c0,1.1,0.4,1.9,1.1,2.6c0.8,0.6,1.8,0.9,3.2,0.9c1.4,0,2.4-0.3,3.2-1
	c0.8-0.6,1.1-1.5,1.1-2.6c0-0.9-0.4-1.7-1.1-2.4c-0.7-0.7-2-1.4-3.7-2c-1.4,0.6-2.3,1.2-3,1.9C440,533.1,439.7,534,439.7,535z
	 M444,521.6c-1.1,0-2,0.3-2.7,0.8s-1,1.3-1,2.2c0,0.8,0.3,1.6,0.8,2.2c0.5,0.6,1.5,1.2,3,1.8c1.3-0.5,2.2-1.1,2.8-1.8
	c0.5-0.6,0.8-1.4,0.8-2.2c0-0.9-0.3-1.7-1-2.2C446,521.8,445.1,521.6,444,521.6z M460.4,532.3c0-2.4,0.4-4.7,1.1-6.8
	c0.7-2.1,1.7-4,3.1-5.5h2.2c-1.3,1.8-2.3,3.7-3,5.8c-0.7,2.1-1,4.3-1,6.5c0,2.2,0.3,4.3,1,6.4c0.7,2.1,1.6,4,2.9,5.7h-2.2
	c-1.3-1.5-2.4-3.4-3.1-5.4C460.8,536.9,460.4,534.7,460.4,532.3z M470.3,540v-20h2.3v17.9h8.8v2.1H470.3z M491,540h-2.3v-17.9h-6.3
	V520h15v2.1H491V540z M511.7,534.7c0,1.8-0.6,3.1-1.9,4.1c-1.3,1-3,1.5-5.2,1.5c-2.4,0-4.2-0.3-5.5-0.9v-2.2
	c0.8,0.3,1.7,0.6,2.7,0.8c1,0.2,1.9,0.3,2.9,0.3c1.5,0,2.7-0.3,3.5-0.9c0.8-0.6,1.2-1.4,1.2-2.5c0-0.7-0.1-1.3-0.4-1.7
	c-0.3-0.4-0.7-0.9-1.4-1.2c-0.6-0.4-1.6-0.8-3-1.3c-1.9-0.7-3.2-1.5-4-2.4c-0.8-0.9-1.2-2.1-1.2-3.6c0-1.5,0.6-2.8,1.7-3.7
	c1.2-0.9,2.7-1.4,4.6-1.4c2,0,3.8,0.4,5.5,1.1l-0.7,2c-1.6-0.7-3.3-1-4.8-1c-1.2,0-2.2,0.3-2.9,0.8c-0.7,0.5-1,1.3-1,2.2
	c0,0.7,0.1,1.3,0.4,1.7c0.3,0.4,0.7,0.8,1.3,1.2c0.6,0.4,1.5,0.8,2.8,1.2c2.1,0.7,3.5,1.5,4.3,2.4
	C511.3,532.2,511.7,533.3,511.7,534.7z M520.2,532.3c0,2.4-0.4,4.6-1.1,6.7c-0.7,2.1-1.7,3.9-3,5.4h-2.2c1.3-1.7,2.2-3.6,2.9-5.7
	c0.7-2.1,1-4.2,1-6.4c0-2.2-0.3-4.4-1-6.5c-0.7-2.1-1.6-4-3-5.8h2.2c1.3,1.6,2.4,3.4,3.1,5.6C519.8,527.7,520.2,529.9,520.2,532.3z"
	/>
<path class="st0" d="M737.8,540h-2.2v-14.2c0-1.2,0-2.3,0.1-3.4c-0.2,0.2-0.4,0.4-0.6,0.6c-0.2,0.2-1.3,1.1-3.3,2.7l-1.2-1.6
	l5.3-4.1h1.9V540z M747.9,540l8.3-17.9h-10.9V520h13.3v1.8l-8.2,18.2H747.9z M768.4,532.3c0-2.4,0.4-4.7,1.1-6.8
	c0.7-2.1,1.7-4,3.1-5.5h2.2c-1.3,1.8-2.3,3.7-3,5.8c-0.7,2.1-1,4.3-1,6.5c0,2.2,0.3,4.3,1,6.4c0.7,2.1,1.6,4,2.9,5.7h-2.2
	c-1.3-1.5-2.4-3.4-3.1-5.4C768.8,536.9,768.4,534.7,768.4,532.3z M778.4,540v-20h2.3v17.9h8.8v2.1H778.4z M799.1,540h-2.3v-17.9
	h-6.3V520h15v2.1h-6.3V540z M819.7,534.7c0,1.8-0.6,3.1-1.9,4.1c-1.3,1-3,1.5-5.2,1.5c-2.4,0-4.2-0.3-5.5-0.9v-2.2
	c0.8,0.3,1.7,0.6,2.7,0.8c1,0.2,1.9,0.3,2.9,0.3c1.5,0,2.7-0.3,3.5-0.9c0.8-0.6,1.2-1.4,1.2-2.5c0-0.7-0.1-1.3-0.4-1.7
	c-0.3-0.4-0.7-0.9-1.4-1.2c-0.6-0.4-1.6-0.8-3-1.3c-1.9-0.7-3.2-1.5-4-2.4c-0.8-0.9-1.2-2.1-1.2-3.6c0-1.5,0.6-2.8,1.7-3.7
	c1.2-0.9,2.7-1.4,4.6-1.4c2,0,3.8,0.4,5.5,1.1l-0.7,2c-1.7-0.7-3.3-1-4.8-1c-1.2,0-2.2,0.3-2.9,0.8c-0.7,0.5-1,1.3-1,2.2
	c0,0.7,0.1,1.3,0.4,1.7c0.3,0.4,0.7,0.8,1.3,1.2c0.6,0.4,1.5,0.8,2.8,1.2c2.1,0.7,3.5,1.5,4.3,2.4
	C819.3,532.2,819.7,533.3,819.7,534.7z M828.2,532.3c0,2.4-0.4,4.6-1.1,6.7c-0.7,2.1-1.7,3.9-3,5.4h-2.2c1.3-1.7,2.2-3.6,2.9-5.7
	c0.7-2.1,1-4.2,1-6.4c0-2.2-0.3-4.4-1-6.5c-0.7-2.1-1.6-4-3-5.8h2.2c1.3,1.6,2.4,3.4,3.1,5.6C827.8,527.7,828.2,529.9,828.2,532.3z"
	/>
<path class="st0" d="M885.7,531.5c0-3.9,0.8-6.9,2.3-8.8c1.5-2,3.8-2.9,6.8-2.9c1,0,1.8,0.1,2.4,0.3v2c-0.7-0.2-1.5-0.3-2.4-0.3
	c-2.1,0-3.8,0.7-4.9,2c-1.1,1.3-1.8,3.4-1.9,6.3h0.2c1-1.6,2.6-2.4,4.8-2.4c1.8,0,3.2,0.5,4.2,1.6c1,1.1,1.6,2.6,1.6,4.4
	c0,2.1-0.6,3.7-1.7,4.9c-1.1,1.2-2.7,1.8-4.6,1.8c-2.1,0-3.7-0.8-4.9-2.3C886.3,536.4,885.7,534.2,885.7,531.5z M892.4,538.3
	c1.3,0,2.3-0.4,3-1.2c0.7-0.8,1.1-2,1.1-3.5c0-1.3-0.3-2.4-1-3.1c-0.7-0.8-1.7-1.1-3-1.1c-0.8,0-1.6,0.2-2.3,0.5
	c-0.7,0.3-1.2,0.8-1.6,1.4c-0.4,0.6-0.6,1.2-0.6,1.8c0,0.9,0.2,1.8,0.5,2.6c0.4,0.8,0.9,1.5,1.5,1.9
	C890.8,538.1,891.5,538.3,892.4,538.3z M908.5,532.3c0-2.4,0.4-4.7,1.1-6.8c0.7-2.1,1.7-4,3.1-5.5h2.2c-1.3,1.8-2.3,3.7-3,5.8
	c-0.7,2.1-1,4.3-1,6.5c0,2.2,0.3,4.3,1,6.4c0.7,2.1,1.6,4,2.9,5.7h-2.2c-1.3-1.5-2.4-3.4-3.1-5.4
	C908.9,536.9,908.5,534.7,908.5,532.3z M929.6,540h-11.1v-20h11.1v2.1h-8.8v6.4h8.3v2h-8.3v7.4h8.8V540z M951.4,530
	c0,3.2-0.8,5.7-2.4,7.5c-1.6,1.8-3.9,2.7-6.7,2.7c-2.9,0-5.2-0.9-6.8-2.7c-1.6-1.8-2.4-4.3-2.4-7.6c0-3.3,0.8-5.8,2.4-7.6
	c1.6-1.8,3.9-2.7,6.8-2.7c2.9,0,5.1,0.9,6.7,2.7C950.5,524.3,951.4,526.8,951.4,530z M935.4,530c0,2.7,0.6,4.8,1.7,6.2
	c1.2,1.4,2.8,2.1,5,2.1c2.2,0,3.9-0.7,5-2.1c1.1-1.4,1.7-3.5,1.7-6.2c0-2.7-0.6-4.7-1.7-6.1c-1.1-1.4-2.8-2.1-5-2.1
	c-2.2,0-3.9,0.7-5.1,2.1C936,525.3,935.4,527.3,935.4,530z M955.8,540v-20h2.3v17.9h8.8v2.1H955.8z M974.8,532.3
	c0,2.4-0.4,4.6-1.1,6.7c-0.7,2.1-1.7,3.9-3,5.4h-2.2c1.3-1.7,2.2-3.6,2.9-5.7c0.7-2.1,1-4.2,1-6.4c0-2.2-0.3-4.4-1-6.5
	c-0.7-2.1-1.6-4-3-5.8h2.2c1.3,1.6,2.4,3.4,3.1,5.6C974.4,527.7,974.8,529.9,974.8,532.3z"/>
<path class="st0" d="M592.3,540l8.3-17.9h-10.9V520h13.3v1.8l-8.2,18.2H592.3z M612.8,532.3c0-2.4,0.4-4.7,1.1-6.8
	c0.7-2.1,1.7-4,3.1-5.5h2.2c-1.3,1.8-2.3,3.7-3,5.8c-0.7,2.1-1,4.3-1,6.5c0,2.2,0.3,4.3,1,6.4c0.7,2.1,1.6,4,2.9,5.7h-2.2
	c-1.3-1.5-2.4-3.4-3.1-5.4C613.1,536.9,612.8,534.7,612.8,532.3z M622.7,540v-20h2.3v17.9h8.8v2.1H622.7z M643.4,540h-2.3v-17.9
	h-6.3V520h15v2.1h-6.3V540z M664,534.7c0,1.8-0.6,3.1-1.9,4.1c-1.3,1-3,1.5-5.2,1.5c-2.4,0-4.2-0.3-5.5-0.9v-2.2
	c0.8,0.3,1.7,0.6,2.7,0.8c1,0.2,1.9,0.3,2.9,0.3c1.5,0,2.7-0.3,3.5-0.9c0.8-0.6,1.2-1.4,1.2-2.5c0-0.7-0.1-1.3-0.4-1.7
	c-0.3-0.4-0.7-0.9-1.4-1.2c-0.6-0.4-1.6-0.8-3-1.3c-1.9-0.7-3.2-1.5-4-2.4c-0.8-0.9-1.2-2.1-1.2-3.6c0-1.5,0.6-2.8,1.7-3.7
	c1.2-0.9,2.7-1.4,4.6-1.4c2,0,3.8,0.4,5.5,1.1l-0.7,2c-1.6-0.7-3.3-1-4.8-1c-1.2,0-2.2,0.3-2.9,0.8c-0.7,0.5-1,1.3-1,2.2
	c0,0.7,0.1,1.3,0.4,1.7c0.3,0.4,0.7,0.8,1.3,1.2c0.6,0.4,1.5,0.8,2.8,1.2c2.1,0.7,3.5,1.5,4.3,2.4C663.6,532.2,664,533.3,664,534.7z
	 M672.5,532.3c0,2.4-0.4,4.6-1.1,6.7c-0.7,2.1-1.7,3.9-3,5.4h-2.2c1.3-1.7,2.2-3.6,2.9-5.7c0.7-2.1,1-4.2,1-6.4c0-2.2-0.3-4.4-1-6.5
	c-0.7-2.1-1.6-4-3-5.8h2.2c1.3,1.6,2.4,3.4,3.1,5.6C672.2,527.7,672.5,529.9,672.5,532.3z"/>
<path class="st0" d="M297.9,50.9h-2.4V55h-4.1v-4.1h-8.5v-2.9l8.8-12.9h3.9v12.6h2.4V50.9z M291.4,47.6v-3.4c0-0.6,0-1.4,0.1-2.5
	c0-1.1,0.1-1.7,0.1-1.9h-0.1c-0.3,0.7-0.7,1.5-1.2,2.2l-3.7,5.5H291.4z M306.4,34.8c1.9,0,3.5,0.4,4.6,1.3c1.2,0.9,1.8,2,1.8,3.5
	c0,1-0.3,1.9-0.8,2.7c-0.6,0.8-1.5,1.5-2.7,2.1c1.5,0.8,2.6,1.6,3.2,2.5c0.7,0.9,1,1.8,1,2.9c0,1.6-0.6,3-1.9,4
	c-1.3,1-3,1.5-5.1,1.5c-2.2,0-3.9-0.5-5.2-1.4c-1.2-0.9-1.9-2.2-1.9-4c0-1.1,0.3-2.2,0.9-3c0.6-0.9,1.6-1.7,2.9-2.3
	c-1.1-0.7-2-1.5-2.5-2.3c-0.5-0.8-0.8-1.7-0.8-2.7c0-1.4,0.6-2.6,1.8-3.5C303,35.2,304.5,34.8,306.4,34.8z M303.3,49.7
	c0,0.8,0.3,1.4,0.8,1.8c0.5,0.4,1.3,0.7,2.2,0.7c1,0,1.8-0.2,2.4-0.7c0.5-0.5,0.8-1.1,0.8-1.8c0-0.6-0.3-1.2-0.8-1.7
	c-0.5-0.5-1.3-1.1-2.5-1.7C304.3,47.2,303.3,48.3,303.3,49.7z M306.4,37.8c-0.7,0-1.3,0.2-1.8,0.6c-0.4,0.4-0.7,0.9-0.7,1.5
	c0,0.5,0.2,1,0.5,1.5c0.4,0.4,1,0.9,1.9,1.3c0.9-0.4,1.5-0.8,1.9-1.3c0.4-0.4,0.5-0.9,0.5-1.5c0-0.6-0.2-1.1-0.7-1.5
	C307.7,38,307.1,37.8,306.4,37.8z M316,53c0-0.8,0.2-1.3,0.6-1.7c0.4-0.4,1-0.6,1.8-0.6c0.8,0,1.3,0.2,1.8,0.6
	c0.4,0.4,0.6,1,0.6,1.7c0,0.7-0.2,1.3-0.6,1.7c-0.4,0.4-1,0.6-1.8,0.6c-0.8,0-1.4-0.2-1.8-0.6C316.2,54.4,316,53.8,316,53z
	 M337.9,50.9h-2.4V55h-4.1v-4.1h-8.5v-2.9l8.8-12.9h3.9v12.6h2.4V50.9z M331.4,47.6v-3.4c0-0.6,0-1.4,0.1-2.5c0-1.1,0.1-1.7,0.1-1.9
	h-0.1c-0.3,0.7-0.7,1.5-1.2,2.2l-3.7,5.5H331.4z M353.9,50.9h-2.4V55h-4.1v-4.1h-8.5v-2.9l8.8-12.9h3.9v12.6h2.4V50.9z M347.4,47.6
	v-3.4c0-0.6,0-1.4,0.1-2.5c0-1.1,0.1-1.7,0.1-1.9h-0.1c-0.3,0.7-0.7,1.5-1.2,2.2l-3.7,5.5H347.4z M358.7,41c0,1.2,0.1,2,0.3,2.6
	c0.2,0.6,0.5,0.8,1,0.8c0.9,0,1.3-1.1,1.3-3.4c0-2.3-0.4-3.4-1.3-3.4c-0.5,0-0.8,0.3-1,0.8C358.8,39,358.7,39.8,358.7,41z M364.7,41
	c0,2.1-0.4,3.7-1.2,4.7c-0.8,1-2,1.6-3.6,1.6c-1.5,0-2.7-0.5-3.5-1.6c-0.8-1.1-1.2-2.6-1.2-4.7c0-4.2,1.6-6.2,4.7-6.2
	c1.5,0,2.7,0.5,3.5,1.6C364.3,37.4,364.7,39,364.7,41z M374.1,35L363,55h-3.3l11.1-20H374.1z M372.7,49c0,1.2,0.1,2,0.3,2.6
	c0.2,0.6,0.5,0.8,1,0.8c0.9,0,1.3-1.1,1.3-3.4c0-2.3-0.4-3.4-1.3-3.4c-0.5,0-0.8,0.3-1,0.8C372.8,47,372.7,47.8,372.7,49z M378.7,49
	c0,2.1-0.4,3.7-1.2,4.7c-0.8,1-2,1.6-3.6,1.6c-1.5,0-2.7-0.5-3.5-1.6c-0.8-1.1-1.2-2.6-1.2-4.7c0-4.2,1.6-6.2,4.7-6.2
	c1.5,0,2.7,0.5,3.5,1.6C378.3,45.4,378.7,47,378.7,49z"/>
<path class="st0" d="M447.9,67.9h-2.4V72h-4.1v-4.1h-8.5v-2.9l8.8-12.9h3.9v12.6h2.4V67.9z M441.4,64.6v-3.4c0-0.6,0-1.4,0.1-2.5
	c0-1.1,0.1-1.7,0.1-1.9h-0.1c-0.3,0.7-0.7,1.5-1.2,2.2l-3.7,5.5H441.4z M449.4,63.5c0-4,0.8-6.9,2.5-8.8c1.7-1.9,4.2-2.9,7.5-2.9
	c1.1,0,2,0.1,2.7,0.2v3.4c-0.8-0.2-1.6-0.3-2.4-0.3c-1.4,0-2.6,0.2-3.6,0.7c-0.9,0.4-1.6,1.1-2.1,1.9c-0.5,0.9-0.7,2.1-0.8,3.7h0.2
	c0.9-1.5,2.3-2.3,4.3-2.3c1.8,0,3.2,0.6,4.2,1.7c1,1.1,1.5,2.7,1.5,4.6c0,2.1-0.6,3.8-1.8,5.1c-1.2,1.2-2.9,1.9-5,1.9
	c-1.5,0-2.8-0.3-3.9-1c-1.1-0.7-1.9-1.7-2.5-3C449.7,66.9,449.4,65.4,449.4,63.5z M456.6,68.9c0.9,0,1.6-0.3,2.1-0.9
	c0.5-0.6,0.7-1.5,0.7-2.6c0-1-0.2-1.7-0.7-2.3c-0.4-0.6-1.1-0.8-2-0.8c-0.9,0-1.6,0.3-2.2,0.8c-0.6,0.6-0.9,1.2-0.9,1.9
	c0,1.1,0.3,2,0.8,2.7C455,68.5,455.7,68.9,456.6,68.9z M466,70c0-0.8,0.2-1.3,0.6-1.7c0.4-0.4,1-0.6,1.8-0.6c0.8,0,1.3,0.2,1.8,0.6
	c0.4,0.4,0.6,1,0.6,1.7c0,0.7-0.2,1.3-0.6,1.7c-0.4,0.4-1,0.6-1.8,0.6c-0.8,0-1.4-0.2-1.8-0.6C466.2,71.4,466,70.8,466,70z
	 M487.9,67.9h-2.4V72h-4.1v-4.1h-8.5v-2.9l8.8-12.9h3.9v12.6h2.4V67.9z M481.4,64.6v-3.4c0-0.6,0-1.4,0.1-2.5c0-1.1,0.1-1.7,0.1-1.9
	h-0.1c-0.3,0.7-0.7,1.5-1.2,2.2l-3.7,5.5H481.4z M496.8,59.2c1.9,0,3.5,0.5,4.6,1.6c1.1,1.1,1.7,2.6,1.7,4.5c0,2.2-0.7,4-2.1,5.2
	c-1.4,1.2-3.3,1.8-5.9,1.8c-2.2,0-4-0.4-5.4-1.1v-3.7c0.7,0.4,1.6,0.7,2.5,0.9c1,0.2,1.9,0.4,2.7,0.4c2.6,0,3.9-1.1,3.9-3.2
	c0-2-1.3-3-4-3c-0.5,0-1,0.1-1.6,0.2c-0.6,0.1-1.1,0.2-1.4,0.3l-1.7-0.9l0.8-10.2h10.8v3.6h-7.1l-0.4,3.9l0.5-0.1
	C495.3,59.3,495.9,59.2,496.8,59.2z M508.7,58c0,1.2,0.1,2,0.3,2.6c0.2,0.6,0.5,0.8,1,0.8c0.9,0,1.3-1.1,1.3-3.4
	c0-2.3-0.4-3.4-1.3-3.4c-0.5,0-0.8,0.3-1,0.8C508.8,56,508.7,56.8,508.7,58z M514.7,58c0,2.1-0.4,3.7-1.2,4.7c-0.8,1-2,1.6-3.6,1.6
	c-1.5,0-2.7-0.5-3.5-1.6c-0.8-1.1-1.2-2.6-1.2-4.7c0-4.2,1.6-6.2,4.7-6.2c1.5,0,2.7,0.5,3.5,1.6C514.3,54.4,514.7,56,514.7,58z
	 M524.1,52L513,72h-3.3l11.1-20H524.1z M522.7,66c0,1.2,0.1,2,0.3,2.6c0.2,0.6,0.5,0.8,1,0.8c0.9,0,1.3-1.1,1.3-3.4
	c0-2.3-0.4-3.4-1.3-3.4c-0.5,0-0.8,0.3-1,0.8C522.8,64,522.7,64.8,522.7,66z M528.7,66c0,2.1-0.4,3.7-1.2,4.7c-0.8,1-2,1.6-3.6,1.6
	c-1.5,0-2.7-0.5-3.5-1.6c-0.8-1.1-1.2-2.6-1.2-4.7c0-4.2,1.6-6.2,4.7-6.2c1.5,0,2.7,0.5,3.5,1.6C528.3,62.4,528.7,64,528.7,66z"/>
<path class="st0" d="M602,448h-4.2v-11.6l0-1.9l0.1-2.1c-0.7,0.7-1.2,1.2-1.5,1.4l-2.3,1.8l-2-2.5l6.4-5.1h3.5V448z M608,446
	c0-0.8,0.2-1.3,0.6-1.7c0.4-0.4,1-0.6,1.8-0.6c0.8,0,1.3,0.2,1.8,0.6c0.4,0.4,0.6,1,0.6,1.7c0,0.7-0.2,1.3-0.6,1.7
	c-0.4,0.4-1,0.6-1.8,0.6c-0.8,0-1.4-0.2-1.8-0.6C608.2,447.4,608,446.8,608,446z M617.5,448l7.5-16.4h-9.9V428h14.3v2.7l-7.6,17.3
	H617.5z M641.9,448h-4.2v-11.6l0-1.9l0.1-2.1c-0.7,0.7-1.2,1.2-1.5,1.4l-2.3,1.8l-2-2.5l6.4-5.1h3.5V448z M650.7,434
	c0,1.2,0.1,2,0.3,2.6c0.2,0.6,0.5,0.8,1,0.8c0.9,0,1.3-1.1,1.3-3.4c0-2.3-0.4-3.4-1.3-3.4c-0.5,0-0.8,0.3-1,0.8
	C650.8,432,650.7,432.8,650.7,434z M656.7,434c0,2.1-0.4,3.7-1.2,4.7c-0.8,1-2,1.6-3.6,1.6c-1.5,0-2.7-0.5-3.5-1.6
	c-0.8-1.1-1.2-2.6-1.2-4.7c0-4.2,1.6-6.2,4.7-6.2c1.5,0,2.7,0.5,3.5,1.6C656.3,430.4,656.7,432,656.7,434z M666.1,428L655,448h-3.3
	l11.1-20H666.1z M664.7,442c0,1.2,0.1,2,0.3,2.6c0.2,0.6,0.5,0.8,1,0.8c0.9,0,1.3-1.1,1.3-3.4c0-2.3-0.4-3.4-1.3-3.4
	c-0.5,0-0.8,0.3-1,0.8C664.8,440,664.7,440.8,664.7,442z M670.7,442c0,2.1-0.4,3.7-1.2,4.7c-0.8,1-2,1.6-3.6,1.6
	c-1.5,0-2.7-0.5-3.5-1.6c-0.8-1.1-1.2-2.6-1.2-4.7c0-4.2,1.6-6.2,4.7-6.2c1.5,0,2.7,0.5,3.5,1.6C670.3,438.4,670.7,440,670.7,442z"
	/>
<path class="st0" d="M755.4,442c0,3.5-0.6,6.1-1.7,7.8c-1.1,1.7-2.9,2.5-5.3,2.5c-2.3,0-4-0.9-5.2-2.6c-1.2-1.7-1.8-4.3-1.8-7.7
	c0-3.5,0.6-6.1,1.7-7.8c1.1-1.7,2.9-2.5,5.3-2.5c2.3,0,4,0.9,5.2,2.6C754.8,436.1,755.4,438.6,755.4,442z M745.6,442
	c0,2.5,0.2,4.2,0.6,5.3c0.4,1.1,1.1,1.6,2.1,1.6c1,0,1.7-0.5,2.1-1.6c0.4-1.1,0.7-2.8,0.7-5.3c0-2.5-0.2-4.2-0.7-5.3
	c-0.4-1.1-1.1-1.6-2.1-1.6c-1,0-1.7,0.5-2.1,1.6C745.8,437.8,745.6,439.6,745.6,442z M758,450c0-0.8,0.2-1.3,0.6-1.7
	c0.4-0.4,1-0.6,1.8-0.6c0.8,0,1.3,0.2,1.8,0.6c0.4,0.4,0.6,1,0.6,1.7c0,0.7-0.2,1.3-0.6,1.7c-0.4,0.4-1,0.6-1.8,0.6
	c-0.8,0-1.4-0.2-1.8-0.6C758.2,451.4,758,450.8,758,450z M778.7,436.5c0,1.2-0.4,2.3-1.1,3.2c-0.8,0.9-1.8,1.5-3.2,1.8v0.1
	c1.6,0.2,2.8,0.7,3.7,1.5c0.8,0.8,1.2,1.8,1.2,3.1c0,1.9-0.7,3.4-2.1,4.5c-1.4,1.1-3.4,1.6-6,1.6c-2.2,0-4.1-0.4-5.8-1.1v-3.6
	c0.8,0.4,1.6,0.7,2.6,1s1.9,0.4,2.8,0.4c1.4,0,2.4-0.2,3.1-0.7c0.7-0.5,1-1.2,1-2.3c0-0.9-0.4-1.6-1.1-2c-0.8-0.4-2-0.6-3.7-0.6
	h-1.5v-3.2h1.5c1.5,0,2.7-0.2,3.4-0.6c0.7-0.4,1.1-1.1,1.1-2.1c0-1.5-0.9-2.3-2.8-2.3c-0.7,0-1.3,0.1-2,0.3
	c-0.7,0.2-1.4,0.6-2.3,1.1l-2-2.9c1.8-1.3,4-2,6.5-2c2.1,0,3.7,0.4,4.9,1.3C778.1,433.8,778.7,435,778.7,436.5z M783.5,452l7.5-16.4
	h-9.9V432h14.3v2.7l-7.6,17.3H783.5z M800.7,438c0,1.2,0.1,2,0.3,2.6c0.2,0.6,0.5,0.8,1,0.8c0.9,0,1.3-1.1,1.3-3.4
	c0-2.3-0.4-3.4-1.3-3.4c-0.5,0-0.8,0.3-1,0.8C800.8,436,800.7,436.8,800.7,438z M806.7,438c0,2.1-0.4,3.7-1.2,4.7
	c-0.8,1-2,1.6-3.6,1.6c-1.5,0-2.7-0.5-3.5-1.6c-0.8-1.1-1.2-2.6-1.2-4.7c0-4.2,1.6-6.2,4.7-6.2c1.5,0,2.7,0.5,3.5,1.6
	C806.3,434.4,806.7,436,806.7,438z M816.1,432L805,452h-3.3l11.1-20H816.1z M814.7,446c0,1.2,0.1,2,0.3,2.6c0.2,0.6,0.5,0.8,1,0.8
	c0.9,0,1.3-1.1,1.3-3.4c0-2.3-0.4-3.4-1.3-3.4c-0.5,0-0.8,0.3-1,0.8C814.8,444,814.7,444.8,814.7,446z M820.7,446
	c0,2.1-0.4,3.7-1.2,4.7c-0.8,1-2,1.6-3.6,1.6c-1.5,0-2.7-0.5-3.5-1.6c-0.8-1.1-1.2-2.6-1.2-4.7c0-4.2,1.6-6.2,4.7-6.2
	c1.5,0,2.7,0.5,3.5,1.6C820.3,442.4,820.7,444,820.7,446z"/>
<path class="st0" d="M907.4,449c0,3.5-0.6,6.1-1.7,7.8c-1.1,1.7-2.9,2.5-5.3,2.5c-2.3,0-4-0.9-5.2-2.6c-1.2-1.7-1.8-4.3-1.8-7.7
	c0-3.5,0.6-6.1,1.7-7.8c1.1-1.7,2.9-2.5,5.3-2.5c2.3,0,4,0.9,5.2,2.6C906.8,443.1,907.4,445.6,907.4,449z M897.6,449
	c0,2.5,0.2,4.2,0.6,5.3c0.4,1.1,1.1,1.6,2.1,1.6c1,0,1.7-0.5,2.1-1.6c0.4-1.1,0.7-2.8,0.7-5.3c0-2.5-0.2-4.2-0.7-5.3
	c-0.4-1.1-1.1-1.6-2.1-1.6c-1,0-1.7,0.5-2.1,1.6C897.8,444.8,897.6,446.6,897.6,449z M910,457c0-0.8,0.2-1.3,0.6-1.7
	c0.4-0.4,1-0.6,1.8-0.6c0.8,0,1.3,0.2,1.8,0.6c0.4,0.4,0.6,1,0.6,1.7c0,0.7-0.2,1.3-0.6,1.7c-0.4,0.4-1,0.6-1.8,0.6
	c-0.8,0-1.4-0.2-1.8-0.6C910.2,458.4,910,457.8,910,457z M931.5,459h-14v-2.9l5-5.1c1.5-1.5,2.5-2.6,2.9-3.2c0.5-0.6,0.8-1.1,1-1.6
	c0.2-0.5,0.3-1,0.3-1.6c0-0.8-0.2-1.4-0.7-1.8c-0.4-0.4-1-0.6-1.8-0.6c-0.8,0-1.5,0.2-2.3,0.5c-0.7,0.4-1.5,0.9-2.3,1.5l-2.3-2.7
	c1-0.8,1.8-1.4,2.4-1.8c0.6-0.3,1.4-0.6,2.1-0.8c0.8-0.2,1.6-0.3,2.6-0.3c1.2,0,2.4,0.2,3.3,0.7c1,0.5,1.7,1.1,2.2,1.9
	c0.5,0.8,0.8,1.8,0.8,2.8c0,0.9-0.2,1.8-0.5,2.6c-0.3,0.8-0.8,1.6-1.5,2.5c-0.7,0.8-1.9,2.1-3.6,3.6l-2.6,2.4v0.2h8.7V459z
	 M935.5,459l7.5-16.4h-9.9V439h14.3v2.7l-7.6,17.3H935.5z M952.7,445c0,1.2,0.1,2,0.3,2.6c0.2,0.6,0.5,0.8,1,0.8
	c0.9,0,1.3-1.1,1.3-3.4c0-2.3-0.4-3.4-1.3-3.4c-0.5,0-0.8,0.3-1,0.8C952.8,443,952.7,443.8,952.7,445z M958.7,445
	c0,2.1-0.4,3.7-1.2,4.7c-0.8,1-2,1.6-3.6,1.6c-1.5,0-2.7-0.5-3.5-1.6c-0.8-1.1-1.2-2.6-1.2-4.7c0-4.2,1.6-6.2,4.7-6.2
	c1.5,0,2.7,0.5,3.5,1.6C958.3,441.4,958.7,443,958.7,445z M968.1,439L957,459h-3.3l11.1-20H968.1z M966.7,453c0,1.2,0.1,2,0.3,2.6
	c0.2,0.6,0.5,0.8,1,0.8c0.9,0,1.3-1.1,1.3-3.4c0-2.3-0.4-3.4-1.3-3.4c-0.5,0-0.8,0.3-1,0.8C966.8,451,966.7,451.8,966.7,453z
	 M972.7,453c0,2.1-0.4,3.7-1.2,4.7c-0.8,1-2,1.6-3.6,1.6c-1.5,0-2.7-0.5-3.5-1.6c-0.8-1.1-1.2-2.6-1.2-4.7c0-4.2,1.6-6.2,4.7-6.2
	c1.5,0,2.7,0.5,3.5,1.6C972.3,449.4,972.7,451,972.7,453z"/>
<path class="st0" d="M145.9,56.3c1.5,0,2.7,0.4,3.5,1.1c0.9,0.7,1.3,1.8,1.3,3.1c0,1.5-0.5,2.6-1.4,3.5c-0.9,0.8-2.2,1.3-3.9,1.3
	c-1.6,0-2.8-0.3-3.7-0.8v-1.6c0.5,0.3,1,0.5,1.7,0.7c0.7,0.2,1.3,0.2,2,0.2c1.1,0,2-0.3,2.7-0.8c0.6-0.5,1-1.3,1-2.3
	c0-2-1.2-3-3.7-3c-0.6,0-1.4,0.1-2.5,0.3l-0.8-0.5l0.5-6.7h7.1v1.5H144l-0.4,4.3C144.4,56.4,145.1,56.3,145.9,56.3z M162.3,57.8
	c0,2.5-0.4,4.3-1.2,5.5c-0.8,1.2-2,1.8-3.6,1.8c-1.5,0-2.7-0.6-3.5-1.9c-0.8-1.3-1.2-3.1-1.2-5.5c0-2.5,0.4-4.3,1.2-5.5
	c0.8-1.2,2-1.8,3.5-1.8c1.5,0,2.7,0.6,3.5,1.9C161.9,53.6,162.3,55.5,162.3,57.8z M154.5,57.8c0,2.1,0.2,3.6,0.7,4.5
	c0.5,0.9,1.3,1.4,2.3,1.4c1.1,0,1.9-0.5,2.3-1.4c0.5-1,0.7-2.5,0.7-4.5s-0.2-3.6-0.7-4.5c-0.5-1-1.3-1.4-2.3-1.4
	c-1.1,0-1.8,0.5-2.3,1.4C154.7,54.3,154.5,55.8,154.5,57.8z M164.8,64c0-0.4,0.1-0.8,0.3-1c0.2-0.2,0.5-0.3,0.9-0.3
	c0.4,0,0.7,0.1,0.9,0.3c0.2,0.2,0.3,0.6,0.3,1c0,0.4-0.1,0.7-0.3,1s-0.5,0.3-0.9,0.3c-0.3,0-0.6-0.1-0.8-0.3
	C164.9,64.8,164.8,64.4,164.8,64z M179.1,57.8c0,2.5-0.4,4.3-1.2,5.5c-0.8,1.2-2,1.8-3.6,1.8c-1.5,0-2.7-0.6-3.5-1.9
	c-0.8-1.3-1.2-3.1-1.2-5.5c0-2.5,0.4-4.3,1.2-5.5c0.8-1.2,2-1.8,3.5-1.8c1.5,0,2.7,0.6,3.5,1.9C178.7,53.6,179.1,55.5,179.1,57.8z
	 M171.3,57.8c0,2.1,0.2,3.6,0.7,4.5c0.5,0.9,1.3,1.4,2.3,1.4c1.1,0,1.9-0.5,2.3-1.4c0.5-1,0.7-2.5,0.7-4.5s-0.2-3.6-0.7-4.5
	c-0.5-1-1.3-1.4-2.3-1.4c-1.1,0-1.8,0.5-2.3,1.4C171.5,54.3,171.3,55.8,171.3,57.8z M190.5,57.8c0,2.5-0.4,4.3-1.2,5.5
	c-0.8,1.2-2,1.8-3.6,1.8c-1.5,0-2.7-0.6-3.5-1.9c-0.8-1.3-1.2-3.1-1.2-5.5c0-2.5,0.4-4.3,1.2-5.5c0.8-1.2,2-1.8,3.5-1.8
	c1.5,0,2.7,0.6,3.5,1.9C190.1,53.6,190.5,55.5,190.5,57.8z M182.7,57.8c0,2.1,0.2,3.6,0.7,4.5c0.5,0.9,1.3,1.4,2.3,1.4
	c1.1,0,1.9-0.5,2.3-1.4c0.5-1,0.7-2.5,0.7-4.5s-0.2-3.6-0.7-4.5c-0.5-1-1.3-1.4-2.3-1.4c-1.1,0-1.8,0.5-2.3,1.4
	C183,54.3,182.7,55.8,182.7,57.8z M193.9,55c0,1.1,0.1,1.9,0.4,2.5c0.2,0.6,0.6,0.8,1.2,0.8c1.1,0,1.6-1.1,1.6-3.3
	c0-2.2-0.5-3.3-1.6-3.3c-0.5,0-0.9,0.3-1.2,0.8C194,53,193.9,53.9,193.9,55z M198.4,55c0,1.5-0.3,2.6-0.8,3.4
	c-0.5,0.8-1.2,1.1-2.2,1.1c-0.9,0-1.6-0.4-2.1-1.2c-0.5-0.8-0.8-1.9-0.8-3.3c0-1.5,0.2-2.6,0.7-3.3c0.5-0.7,1.2-1.1,2.2-1.1
	c0.9,0,1.7,0.4,2.2,1.2C198.1,52.5,198.4,53.6,198.4,55z M202.5,60.7c0,1.1,0.1,1.9,0.4,2.5c0.2,0.5,0.6,0.8,1.2,0.8s1-0.3,1.2-0.8
	c0.3-0.5,0.4-1.4,0.4-2.5c0-1.1-0.1-1.9-0.4-2.5c-0.3-0.5-0.7-0.8-1.2-0.8s-0.9,0.3-1.2,0.8C202.6,58.8,202.5,59.6,202.5,60.7z
	 M207,60.7c0,1.5-0.3,2.6-0.8,3.4c-0.5,0.8-1.2,1.1-2.2,1.1c-0.9,0-1.6-0.4-2.1-1.2c-0.5-0.8-0.7-1.9-0.7-3.3c0-1.5,0.2-2.6,0.7-3.3
	c0.5-0.7,1.2-1.1,2.2-1.1c0.9,0,1.6,0.4,2.2,1.2C206.7,58.2,207,59.3,207,60.7z M204.5,50.7L196.5,65h-1.4l7.9-14.3H204.5z"/>
<path class="st0" d="M151.5,147.7h-2.1v3.3h-1.6v-3.3h-6.9v-1.4l6.8-9.7h1.7v9.6h2.1V147.7z M147.8,146.2v-4.7c0-0.9,0-2,0.1-3.2
	h-0.1c-0.3,0.6-0.6,1.1-0.9,1.6l-4.5,6.3H147.8z M162.3,143.8c0,2.5-0.4,4.3-1.2,5.5c-0.8,1.2-2,1.8-3.6,1.8c-1.5,0-2.7-0.6-3.5-1.9
	c-0.8-1.3-1.2-3.1-1.2-5.5c0-2.5,0.4-4.3,1.2-5.5c0.8-1.2,2-1.8,3.5-1.8c1.5,0,2.7,0.6,3.5,1.9C161.9,139.6,162.3,141.5,162.3,143.8
	z M154.5,143.8c0,2.1,0.2,3.6,0.7,4.5c0.5,0.9,1.3,1.4,2.3,1.4c1.1,0,1.9-0.5,2.3-1.4c0.5-1,0.7-2.5,0.7-4.5c0-2.1-0.2-3.6-0.7-4.5
	c-0.5-1-1.3-1.4-2.3-1.4c-1.1,0-1.8,0.5-2.3,1.4C154.7,140.3,154.5,141.8,154.5,143.8z M164.8,150c0-0.4,0.1-0.8,0.3-1
	c0.2-0.2,0.5-0.3,0.9-0.3c0.4,0,0.7,0.1,0.9,0.3c0.2,0.2,0.3,0.6,0.3,1c0,0.4-0.1,0.7-0.3,1c-0.2,0.2-0.5,0.3-0.9,0.3
	c-0.3,0-0.6-0.1-0.8-0.3C164.9,150.8,164.8,150.4,164.8,150z M179.1,143.8c0,2.5-0.4,4.3-1.2,5.5c-0.8,1.2-2,1.8-3.6,1.8
	c-1.5,0-2.7-0.6-3.5-1.9c-0.8-1.3-1.2-3.1-1.2-5.5c0-2.5,0.4-4.3,1.2-5.5c0.8-1.2,2-1.8,3.5-1.8c1.5,0,2.7,0.6,3.5,1.9
	C178.7,139.6,179.1,141.5,179.1,143.8z M171.3,143.8c0,2.1,0.2,3.6,0.7,4.5c0.5,0.9,1.3,1.4,2.3,1.4c1.1,0,1.9-0.5,2.3-1.4
	c0.5-1,0.7-2.5,0.7-4.5c0-2.1-0.2-3.6-0.7-4.5c-0.5-1-1.3-1.4-2.3-1.4c-1.1,0-1.8,0.5-2.3,1.4C171.5,140.3,171.3,141.8,171.3,143.8z
	 M190.5,143.8c0,2.5-0.4,4.3-1.2,5.5c-0.8,1.2-2,1.8-3.6,1.8c-1.5,0-2.7-0.6-3.5-1.9c-0.8-1.3-1.2-3.1-1.2-5.5
	c0-2.5,0.4-4.3,1.2-5.5c0.8-1.2,2-1.8,3.5-1.8c1.5,0,2.7,0.6,3.5,1.9C190.1,139.6,190.5,141.5,190.5,143.8z M182.7,143.8
	c0,2.1,0.2,3.6,0.7,4.5c0.5,0.9,1.3,1.4,2.3,1.4c1.1,0,1.9-0.5,2.3-1.4c0.5-1,0.7-2.5,0.7-4.5c0-2.1-0.2-3.6-0.7-4.5
	c-0.5-1-1.3-1.4-2.3-1.4c-1.1,0-1.8,0.5-2.3,1.4C183,140.3,182.7,141.8,182.7,143.8z M193.9,141c0,1.1,0.1,1.9,0.4,2.5
	c0.2,0.6,0.6,0.8,1.2,0.8c1.1,0,1.6-1.1,1.6-3.3c0-2.2-0.5-3.3-1.6-3.3c-0.5,0-0.9,0.3-1.2,0.8C194,139,193.9,139.9,193.9,141z
	 M198.4,141c0,1.5-0.3,2.6-0.8,3.4c-0.5,0.8-1.2,1.1-2.2,1.1c-0.9,0-1.6-0.4-2.1-1.2c-0.5-0.8-0.8-1.9-0.8-3.3
	c0-1.5,0.2-2.6,0.7-3.3c0.5-0.7,1.2-1.1,2.2-1.1c0.9,0,1.7,0.4,2.2,1.2C198.1,138.5,198.4,139.6,198.4,141z M202.5,146.7
	c0,1.1,0.1,1.9,0.4,2.5c0.2,0.5,0.6,0.8,1.2,0.8s1-0.3,1.2-0.8c0.3-0.5,0.4-1.4,0.4-2.5c0-1.1-0.1-1.9-0.4-2.5
	c-0.3-0.5-0.7-0.8-1.2-0.8s-0.9,0.3-1.2,0.8C202.6,144.8,202.5,145.6,202.5,146.7z M207,146.7c0,1.5-0.3,2.6-0.8,3.4
	c-0.5,0.8-1.2,1.1-2.2,1.1c-0.9,0-1.6-0.4-2.1-1.2c-0.5-0.8-0.7-1.9-0.7-3.3c0-1.5,0.2-2.6,0.7-3.3c0.5-0.7,1.2-1.1,2.2-1.1
	c0.9,0,1.6,0.4,2.2,1.2C206.7,144.2,207,145.3,207,146.7z M204.5,136.7l-7.9,14.3h-1.4l7.9-14.3H204.5z"/>
<path class="st0" d="M150.2,226.1c0,0.9-0.3,1.7-0.8,2.2c-0.5,0.6-1.2,1-2.2,1.2v0.1c1.1,0.1,2,0.5,2.5,1.1c0.6,0.6,0.8,1.4,0.8,2.3
	c0,1.4-0.5,2.4-1.4,3.1c-0.9,0.7-2.3,1.1-4,1.1c-0.8,0-1.4-0.1-2.1-0.2c-0.6-0.1-1.2-0.3-1.8-0.6v-1.5c0.6,0.3,1.3,0.5,2,0.7
	c0.7,0.2,1.4,0.2,2,0.2c2.5,0,3.7-1,3.7-2.9c0-1.7-1.4-2.6-4.1-2.6h-1.4v-1.4h1.4c1.1,0,2-0.2,2.6-0.7c0.7-0.5,1-1.2,1-2
	c0-0.7-0.2-1.2-0.7-1.6c-0.5-0.4-1.1-0.6-1.9-0.6c-0.6,0-1.2,0.1-1.8,0.3c-0.6,0.2-1.2,0.5-1.9,0.9l-0.8-1.1c0.6-0.5,1.3-0.8,2-1.1
	c0.8-0.3,1.6-0.4,2.4-0.4c1.4,0,2.5,0.3,3.2,1C149.9,224.1,150.2,225,150.2,226.1z M162.3,229.8c0,2.5-0.4,4.3-1.2,5.5
	c-0.8,1.2-2,1.8-3.6,1.8c-1.5,0-2.7-0.6-3.5-1.9c-0.8-1.3-1.2-3.1-1.2-5.5c0-2.5,0.4-4.3,1.2-5.5c0.8-1.2,2-1.8,3.5-1.8
	c1.5,0,2.7,0.6,3.5,1.9C161.9,225.6,162.3,227.5,162.3,229.8z M154.5,229.8c0,2.1,0.2,3.6,0.7,4.5c0.5,0.9,1.3,1.4,2.3,1.4
	c1.1,0,1.9-0.5,2.3-1.4c0.5-1,0.7-2.5,0.7-4.5c0-2.1-0.2-3.6-0.7-4.5c-0.5-1-1.3-1.4-2.3-1.4c-1.1,0-1.8,0.5-2.3,1.4
	C154.7,226.3,154.5,227.8,154.5,229.8z M164.8,236c0-0.4,0.1-0.8,0.3-1c0.2-0.2,0.5-0.3,0.9-0.3c0.4,0,0.7,0.1,0.9,0.3
	c0.2,0.2,0.3,0.6,0.3,1c0,0.4-0.1,0.7-0.3,1c-0.2,0.2-0.5,0.3-0.9,0.3c-0.3,0-0.6-0.1-0.8-0.3C164.9,236.8,164.8,236.4,164.8,236z
	 M179.1,229.8c0,2.5-0.4,4.3-1.2,5.5c-0.8,1.2-2,1.8-3.6,1.8c-1.5,0-2.7-0.6-3.5-1.9c-0.8-1.3-1.2-3.1-1.2-5.5
	c0-2.5,0.4-4.3,1.2-5.5c0.8-1.2,2-1.8,3.5-1.8c1.5,0,2.7,0.6,3.5,1.9C178.7,225.6,179.1,227.5,179.1,229.8z M171.3,229.8
	c0,2.1,0.2,3.6,0.7,4.5c0.5,0.9,1.3,1.4,2.3,1.4c1.1,0,1.9-0.5,2.3-1.4c0.5-1,0.7-2.5,0.7-4.5c0-2.1-0.2-3.6-0.7-4.5
	c-0.5-1-1.3-1.4-2.3-1.4c-1.1,0-1.8,0.5-2.3,1.4C171.5,226.3,171.3,227.8,171.3,229.8z M190.5,229.8c0,2.5-0.4,4.3-1.2,5.5
	c-0.8,1.2-2,1.8-3.6,1.8c-1.5,0-2.7-0.6-3.5-1.9c-0.8-1.3-1.2-3.1-1.2-5.5c0-2.5,0.4-4.3,1.2-5.5c0.8-1.2,2-1.8,3.5-1.8
	c1.5,0,2.7,0.6,3.5,1.9C190.1,225.6,190.5,227.5,190.5,229.8z M182.7,229.8c0,2.1,0.2,3.6,0.7,4.5c0.5,0.9,1.3,1.4,2.3,1.4
	c1.1,0,1.9-0.5,2.3-1.4c0.5-1,0.7-2.5,0.7-4.5c0-2.1-0.2-3.6-0.7-4.5c-0.5-1-1.3-1.4-2.3-1.4c-1.1,0-1.8,0.5-2.3,1.4
	C183,226.3,182.7,227.8,182.7,229.8z M193.9,227c0,1.1,0.1,1.9,0.4,2.5c0.2,0.6,0.6,0.8,1.2,0.8c1.1,0,1.6-1.1,1.6-3.3
	c0-2.2-0.5-3.3-1.6-3.3c-0.5,0-0.9,0.3-1.2,0.8C194,225,193.9,225.9,193.9,227z M198.4,227c0,1.5-0.3,2.6-0.8,3.4
	c-0.5,0.8-1.2,1.1-2.2,1.1c-0.9,0-1.6-0.4-2.1-1.2c-0.5-0.8-0.8-1.9-0.8-3.3c0-1.5,0.2-2.6,0.7-3.3c0.5-0.7,1.2-1.1,2.2-1.1
	c0.9,0,1.7,0.4,2.2,1.2C198.1,224.5,198.4,225.6,198.4,227z M202.5,232.7c0,1.1,0.1,1.9,0.4,2.5c0.2,0.5,0.6,0.8,1.2,0.8
	s1-0.3,1.2-0.8c0.3-0.5,0.4-1.4,0.4-2.5c0-1.1-0.1-1.9-0.4-2.5c-0.3-0.5-0.7-0.8-1.2-0.8s-0.9,0.3-1.2,0.8
	C202.6,230.8,202.5,231.6,202.5,232.7z M207,232.7c0,1.5-0.3,2.6-0.8,3.4c-0.5,0.8-1.2,1.1-2.2,1.1c-0.9,0-1.6-0.4-2.1-1.2
	c-0.5-0.8-0.7-1.9-0.7-3.3c0-1.5,0.2-2.6,0.7-3.3c0.5-0.7,1.2-1.1,2.2-1.1c0.9,0,1.6,0.4,2.2,1.2C206.7,230.2,207,231.3,207,232.7z
	 M204.5,222.7l-7.9,14.3h-1.4l7.9-14.3H204.5z"/>
<path class="st0" d="M150.8,324h-9.4v-1.4l3.8-3.8c1.1-1.2,1.9-2,2.3-2.5c0.4-0.5,0.6-1,0.8-1.4c0.2-0.5,0.3-1,0.3-1.5
	c0-0.8-0.2-1.4-0.7-1.8c-0.5-0.4-1.1-0.7-1.9-0.7c-0.6,0-1.2,0.1-1.7,0.3c-0.5,0.2-1.1,0.6-1.8,1.1l-0.9-1.1
	c1.3-1.1,2.7-1.6,4.3-1.6c1.3,0,2.4,0.3,3.2,1c0.8,0.7,1.1,1.6,1.1,2.8c0,0.9-0.3,1.8-0.8,2.7c-0.5,0.9-1.5,2-2.9,3.4l-3.1,3.1v0.1
	h7.3V324z M162.3,316.8c0,2.5-0.4,4.3-1.2,5.5c-0.8,1.2-2,1.8-3.6,1.8c-1.5,0-2.7-0.6-3.5-1.9c-0.8-1.3-1.2-3.1-1.2-5.5
	c0-2.5,0.4-4.3,1.2-5.5c0.8-1.2,2-1.8,3.5-1.8c1.5,0,2.7,0.6,3.5,1.9C161.9,312.6,162.3,314.5,162.3,316.8z M154.5,316.8
	c0,2.1,0.2,3.6,0.7,4.5c0.5,0.9,1.3,1.4,2.3,1.4c1.1,0,1.9-0.5,2.3-1.4c0.5-1,0.7-2.5,0.7-4.5c0-2.1-0.2-3.6-0.7-4.5
	c-0.5-1-1.3-1.4-2.3-1.4c-1.1,0-1.8,0.5-2.3,1.4C154.7,313.3,154.5,314.8,154.5,316.8z M164.8,323c0-0.4,0.1-0.8,0.3-1
	c0.2-0.2,0.5-0.3,0.9-0.3c0.4,0,0.7,0.1,0.9,0.3c0.2,0.2,0.3,0.5,0.3,1c0,0.4-0.1,0.7-0.3,1c-0.2,0.2-0.5,0.3-0.9,0.3
	c-0.3,0-0.6-0.1-0.8-0.3C164.9,323.8,164.8,323.4,164.8,323z M179.1,316.8c0,2.5-0.4,4.3-1.2,5.5c-0.8,1.2-2,1.8-3.6,1.8
	c-1.5,0-2.7-0.6-3.5-1.9c-0.8-1.3-1.2-3.1-1.2-5.5c0-2.5,0.4-4.3,1.2-5.5c0.8-1.2,2-1.8,3.5-1.8c1.5,0,2.7,0.6,3.5,1.9
	C178.7,312.6,179.1,314.5,179.1,316.8z M171.3,316.8c0,2.1,0.2,3.6,0.7,4.5c0.5,0.9,1.3,1.4,2.3,1.4c1.1,0,1.9-0.5,2.3-1.4
	c0.5-1,0.7-2.5,0.7-4.5c0-2.1-0.2-3.6-0.7-4.5c-0.5-1-1.3-1.4-2.3-1.4c-1.1,0-1.8,0.5-2.3,1.4C171.5,313.3,171.3,314.8,171.3,316.8z
	 M190.5,316.8c0,2.5-0.4,4.3-1.2,5.5c-0.8,1.2-2,1.8-3.6,1.8c-1.5,0-2.7-0.6-3.5-1.9c-0.8-1.3-1.2-3.1-1.2-5.5
	c0-2.5,0.4-4.3,1.2-5.5c0.8-1.2,2-1.8,3.5-1.8c1.5,0,2.7,0.6,3.5,1.9C190.1,312.6,190.5,314.5,190.5,316.8z M182.7,316.8
	c0,2.1,0.2,3.6,0.7,4.5c0.5,0.9,1.3,1.4,2.3,1.4c1.1,0,1.9-0.5,2.3-1.4c0.5-1,0.7-2.5,0.7-4.5c0-2.1-0.2-3.6-0.7-4.5
	c-0.5-1-1.3-1.4-2.3-1.4c-1.1,0-1.8,0.5-2.3,1.4C183,313.3,182.7,314.8,182.7,316.8z M193.9,314c0,1.1,0.1,1.9,0.4,2.5
	c0.2,0.6,0.6,0.8,1.2,0.8c1.1,0,1.6-1.1,1.6-3.3c0-2.2-0.5-3.3-1.6-3.3c-0.5,0-0.9,0.3-1.2,0.8C194,312,193.9,312.9,193.9,314z
	 M198.4,314c0,1.5-0.3,2.6-0.8,3.4c-0.5,0.8-1.2,1.1-2.2,1.1c-0.9,0-1.6-0.4-2.1-1.2c-0.5-0.8-0.8-1.9-0.8-3.3
	c0-1.5,0.2-2.6,0.7-3.3c0.5-0.7,1.2-1.1,2.2-1.1c0.9,0,1.7,0.4,2.2,1.2C198.1,311.5,198.4,312.6,198.4,314z M202.5,319.7
	c0,1.1,0.1,1.9,0.4,2.5c0.2,0.5,0.6,0.8,1.2,0.8s1-0.3,1.2-0.8c0.3-0.5,0.4-1.4,0.4-2.5c0-1.1-0.1-1.9-0.4-2.5
	c-0.3-0.5-0.7-0.8-1.2-0.8s-0.9,0.3-1.2,0.8C202.6,317.8,202.5,318.6,202.5,319.7z M207,319.7c0,1.5-0.3,2.6-0.8,3.4
	c-0.5,0.8-1.2,1.1-2.2,1.1c-0.9,0-1.6-0.4-2.1-1.2c-0.5-0.8-0.7-1.9-0.7-3.3c0-1.5,0.2-2.6,0.7-3.3c0.5-0.7,1.2-1.1,2.2-1.1
	c0.9,0,1.6,0.4,2.2,1.2C206.7,317.2,207,318.3,207,319.7z M204.5,309.7l-7.9,14.3h-1.4l7.9-14.3H204.5z"/>
<path class="st0" d="M147.4,406h-1.6v-10.2c0-0.8,0-1.6,0.1-2.4c-0.1,0.1-0.3,0.3-0.5,0.4c-0.2,0.1-0.9,0.8-2.3,1.9l-0.9-1.1
	l3.8-2.9h1.4V406z M162.3,398.8c0,2.5-0.4,4.3-1.2,5.5c-0.8,1.2-2,1.8-3.6,1.8c-1.5,0-2.7-0.6-3.5-1.9c-0.8-1.3-1.2-3.1-1.2-5.5
	c0-2.5,0.4-4.3,1.2-5.5c0.8-1.2,2-1.8,3.5-1.8c1.5,0,2.7,0.6,3.5,1.9C161.9,394.6,162.3,396.5,162.3,398.8z M154.5,398.8
	c0,2.1,0.2,3.6,0.7,4.5c0.5,0.9,1.3,1.4,2.3,1.4c1.1,0,1.9-0.5,2.3-1.4c0.5-1,0.7-2.5,0.7-4.5c0-2.1-0.2-3.6-0.7-4.5
	c-0.5-1-1.3-1.4-2.3-1.4c-1.1,0-1.8,0.5-2.3,1.4C154.7,395.3,154.5,396.8,154.5,398.8z M164.8,405c0-0.4,0.1-0.8,0.3-1
	c0.2-0.2,0.5-0.3,0.9-0.3c0.4,0,0.7,0.1,0.9,0.3c0.2,0.2,0.3,0.5,0.3,1c0,0.4-0.1,0.7-0.3,1c-0.2,0.2-0.5,0.3-0.9,0.3
	c-0.3,0-0.6-0.1-0.8-0.3C164.9,405.8,164.8,405.4,164.8,405z M179.1,398.8c0,2.5-0.4,4.3-1.2,5.5c-0.8,1.2-2,1.8-3.6,1.8
	c-1.5,0-2.7-0.6-3.5-1.9c-0.8-1.3-1.2-3.1-1.2-5.5c0-2.5,0.4-4.3,1.2-5.5c0.8-1.2,2-1.8,3.5-1.8c1.5,0,2.7,0.6,3.5,1.9
	C178.7,394.6,179.1,396.5,179.1,398.8z M171.3,398.8c0,2.1,0.2,3.6,0.7,4.5c0.5,0.9,1.3,1.4,2.3,1.4c1.1,0,1.9-0.5,2.3-1.4
	c0.5-1,0.7-2.5,0.7-4.5c0-2.1-0.2-3.6-0.7-4.5c-0.5-1-1.3-1.4-2.3-1.4c-1.1,0-1.8,0.5-2.3,1.4C171.5,395.3,171.3,396.8,171.3,398.8z
	 M190.5,398.8c0,2.5-0.4,4.3-1.2,5.5c-0.8,1.2-2,1.8-3.6,1.8c-1.5,0-2.7-0.6-3.5-1.9c-0.8-1.3-1.2-3.1-1.2-5.5
	c0-2.5,0.4-4.3,1.2-5.5c0.8-1.2,2-1.8,3.5-1.8c1.5,0,2.7,0.6,3.5,1.9C190.1,394.6,190.5,396.5,190.5,398.8z M182.7,398.8
	c0,2.1,0.2,3.6,0.7,4.5c0.5,0.9,1.3,1.4,2.3,1.4c1.1,0,1.9-0.5,2.3-1.4c0.5-1,0.7-2.5,0.7-4.5c0-2.1-0.2-3.6-0.7-4.5
	c-0.5-1-1.3-1.4-2.3-1.4c-1.1,0-1.8,0.5-2.3,1.4C183,395.3,182.7,396.8,182.7,398.8z M193.9,396c0,1.1,0.1,1.9,0.4,2.5
	c0.2,0.6,0.6,0.8,1.2,0.8c1.1,0,1.6-1.1,1.6-3.3c0-2.2-0.5-3.3-1.6-3.3c-0.5,0-0.9,0.3-1.2,0.8C194,394,193.9,394.9,193.9,396z
	 M198.4,396c0,1.5-0.3,2.6-0.8,3.4c-0.5,0.8-1.2,1.1-2.2,1.1c-0.9,0-1.6-0.4-2.1-1.2c-0.5-0.8-0.8-1.9-0.8-3.3
	c0-1.5,0.2-2.6,0.7-3.3c0.5-0.7,1.2-1.1,2.2-1.1c0.9,0,1.7,0.4,2.2,1.2C198.1,393.5,198.4,394.6,198.4,396z M202.5,401.7
	c0,1.1,0.1,1.9,0.4,2.5c0.2,0.5,0.6,0.8,1.2,0.8s1-0.3,1.2-0.8c0.3-0.5,0.4-1.4,0.4-2.5c0-1.1-0.1-1.9-0.4-2.5
	c-0.3-0.5-0.7-0.8-1.2-0.8s-0.9,0.3-1.2,0.8C202.6,399.8,202.5,400.6,202.5,401.7z M207,401.7c0,1.5-0.3,2.6-0.8,3.4
	c-0.5,0.8-1.2,1.1-2.2,1.1c-0.9,0-1.6-0.4-2.1-1.2c-0.5-0.8-0.7-1.9-0.7-3.3c0-1.5,0.2-2.6,0.7-3.3c0.5-0.7,1.2-1.1,2.2-1.1
	c0.9,0,1.6,0.4,2.2,1.2C206.7,399.2,207,400.3,207,401.7z M204.5,391.7l-7.9,14.3h-1.4l7.9-14.3H204.5z"/>
<path class="st0" d="M154.3,481.8c0,2.5-0.4,4.3-1.2,5.5c-0.8,1.2-2,1.8-3.6,1.8c-1.5,0-2.7-0.6-3.5-1.9c-0.8-1.3-1.2-3.1-1.2-5.5
	c0-2.5,0.4-4.3,1.2-5.5c0.8-1.2,2-1.8,3.5-1.8c1.5,0,2.7,0.6,3.5,1.9C153.9,477.6,154.3,479.5,154.3,481.8z M146.5,481.8
	c0,2.1,0.2,3.6,0.7,4.5c0.5,0.9,1.3,1.4,2.3,1.4c1.1,0,1.9-0.5,2.3-1.4c0.5-1,0.7-2.5,0.7-4.5c0-2.1-0.2-3.6-0.7-4.5
	c-0.5-1-1.3-1.4-2.3-1.4c-1.1,0-1.8,0.5-2.3,1.4C146.7,478.3,146.5,479.8,146.5,481.8z M156.8,488c0-0.4,0.1-0.8,0.3-1
	c0.2-0.2,0.5-0.3,0.9-0.3c0.4,0,0.7,0.1,0.9,0.3c0.2,0.2,0.3,0.5,0.3,1c0,0.4-0.1,0.7-0.3,1c-0.2,0.2-0.5,0.3-0.9,0.3
	c-0.3,0-0.6-0.1-0.8-0.3C156.9,488.8,156.8,488.4,156.8,488z M171.1,481.8c0,2.5-0.4,4.3-1.2,5.5c-0.8,1.2-2,1.8-3.6,1.8
	c-1.5,0-2.7-0.6-3.5-1.9c-0.8-1.3-1.2-3.1-1.2-5.5c0-2.5,0.4-4.3,1.2-5.5c0.8-1.2,2-1.8,3.5-1.8c1.5,0,2.7,0.6,3.5,1.9
	C170.7,477.6,171.1,479.5,171.1,481.8z M163.3,481.8c0,2.1,0.2,3.6,0.7,4.5c0.5,0.9,1.3,1.4,2.3,1.4c1.1,0,1.9-0.5,2.3-1.4
	c0.5-1,0.7-2.5,0.7-4.5c0-2.1-0.2-3.6-0.7-4.5c-0.5-1-1.3-1.4-2.3-1.4c-1.1,0-1.8,0.5-2.3,1.4C163.5,478.3,163.3,479.8,163.3,481.8z
	 M182.5,481.8c0,2.5-0.4,4.3-1.2,5.5c-0.8,1.2-2,1.8-3.6,1.8c-1.5,0-2.7-0.6-3.5-1.9c-0.8-1.3-1.2-3.1-1.2-5.5
	c0-2.5,0.4-4.3,1.2-5.5c0.8-1.2,2-1.8,3.5-1.8c1.5,0,2.7,0.6,3.5,1.9C182.1,477.6,182.5,479.5,182.5,481.8z M174.7,481.8
	c0,2.1,0.2,3.6,0.7,4.5c0.5,0.9,1.3,1.4,2.3,1.4c1.1,0,1.9-0.5,2.3-1.4c0.5-1,0.7-2.5,0.7-4.5c0-2.1-0.2-3.6-0.7-4.5
	c-0.5-1-1.3-1.4-2.3-1.4c-1.1,0-1.8,0.5-2.3,1.4C175,478.3,174.7,479.8,174.7,481.8z M185.9,479c0,1.1,0.1,1.9,0.4,2.5
	c0.2,0.6,0.6,0.8,1.2,0.8c1.1,0,1.6-1.1,1.6-3.3c0-2.2-0.5-3.3-1.6-3.3c-0.5,0-0.9,0.3-1.2,0.8C186,477,185.9,477.9,185.9,479z
	 M190.4,479c0,1.5-0.3,2.6-0.8,3.4c-0.5,0.8-1.2,1.1-2.2,1.1c-0.9,0-1.6-0.4-2.1-1.2c-0.5-0.8-0.8-1.9-0.8-3.3
	c0-1.5,0.2-2.6,0.7-3.3c0.5-0.7,1.2-1.1,2.2-1.1c0.9,0,1.7,0.4,2.2,1.2C190.1,476.5,190.4,477.6,190.4,479z M194.5,484.7
	c0,1.1,0.1,1.9,0.4,2.5c0.2,0.5,0.6,0.8,1.2,0.8s1-0.3,1.2-0.8c0.3-0.5,0.4-1.4,0.4-2.5c0-1.1-0.1-1.9-0.4-2.5
	c-0.3-0.5-0.7-0.8-1.2-0.8s-0.9,0.3-1.2,0.8C194.6,482.8,194.5,483.6,194.5,484.7z M199,484.7c0,1.5-0.3,2.6-0.8,3.4
	c-0.5,0.8-1.2,1.1-2.2,1.1c-0.9,0-1.6-0.4-2.1-1.2c-0.5-0.8-0.7-1.9-0.7-3.3c0-1.5,0.2-2.6,0.7-3.3c0.5-0.7,1.2-1.1,2.2-1.1
	c0.9,0,1.6,0.4,2.2,1.2C198.7,482.2,199,483.3,199,484.7z M196.5,474.7l-7.9,14.3h-1.4l7.9-14.3H196.5z"/>
<g>
	<path class="st0" d="M78,311.8v2.8h10.7v3H67.2v-3h8.1v-2.8H78z M68,324.2h5.1c4.7,0,7.5-2.4,9.4-5.4c0.7,0.8,1.4,1.7,2,2.2
		c-0.9,1.4-3.1,3.7-5.2,4.7c2.1,0.7,4.7,3.3,5.7,4.8c-0.6,0.6-1.4,1.6-2,2.5c-1.1-1.9-2.6-3.4-4.4-4.4c-1.6-0.8-3.4-1.3-5.4-1.3H68
		V324.2z"/>
	<path class="st0" d="M79.6,290.4v20.1H77v-5.1h-2.7c-0.7,1.9-1.9,3.1-3.3,3.1c-2.2,0-4-3.3-4-8c0-4.8,1.7-8,4-8
		c1.4,0,2.5,1.1,3.3,3H77v-5.1H79.6z M72.7,300.5c0-2.7-0.6-4.6-1.7-4.6s-1.7,2-1.7,4.6c0,2.6,0.6,4.6,1.7,4.6
		C72.1,305.1,72.7,303.2,72.7,300.5z M77,298.5h-2c0.1,0.6,0.1,1.3,0.1,2s0,1.3-0.1,1.9h2V298.5z M89.1,300.5c0,5.3-1.8,8.1-4.1,8.1
		c-2.4,0-4.1-2.8-4.1-8.1c0-5.3,1.8-8.2,4.1-8.2C87.3,292.3,89.1,295.1,89.1,300.5z M86.8,300.5c0-2.9-0.7-4.6-1.8-4.6
		c-1.1,0-1.8,1.8-1.8,4.6c0,3,0.7,4.6,1.8,4.6C86.1,305.1,86.8,303.4,86.8,300.5z"/>
	<path class="st0" d="M75.8,271v15.5h-5.1v-11.8h-1.1v11.8h-2.1v-15.1h5.1v11.8h1.1V271H75.8z M78.9,268.8v4.9h1.4v-2.4h5.1v11.8
		h1.1v-12.4h2.1v15.6h-5.1v-11.8h-1.1v11.8h-2.1v-2.5h-1.4v5h-2.1v-20.1H78.9z M80.3,276.8h-1.4v4.2h1.4V276.8z"/>
	<path class="st0" d="M89.8,260.8v2.4c-2.6,1.5-6.5,3.9-12,3.9c-5.5,0-9.5-2.4-12-3.9v-2.3c4.5,2.4,8.5,3.4,12,3.4
		C81.4,264.2,85.4,263.2,89.8,260.8z"/>
	<path class="st0" d="M69.1,247.5v-2.5l18.3,8.7v2.5L69.1,247.5z M69.5,255.6c0-2.3,2-4.1,4.5-4.1c2.5,0,4.5,1.8,4.5,4.1
		s-2,4.1-4.5,4.1C71.5,259.6,69.5,257.9,69.5,255.6z M71.7,255.6c0,1,1,1.8,2.3,1.8c1.2,0,2.3-0.8,2.3-1.8c0-1-1.1-1.8-2.3-1.8
		C72.7,253.8,71.7,254.6,71.7,255.6z M78,245.7c0-2.3,2-4.1,4.5-4.1s4.5,1.8,4.5,4.1s-2,4.1-4.5,4.1S78,248,78,245.7z M80.2,245.7
		c0,1,1.1,1.8,2.3,1.8s2.3-0.8,2.3-1.8c0-1-1.1-1.8-2.3-1.8S80.2,244.7,80.2,245.7z"/>
	<path class="st0" d="M65.8,238.2c2.5-1.6,6.5-3.9,12-3.9c5.5,0,9.5,2.4,12,3.9v2.4c-4.5-2.4-8.5-3.4-12-3.4s-7.5,1-12,3.4V238.2z"
		/>
</g>
</svg>
